<mxfile host="app.diagrams.net" agent="Mozilla/5.0 (Windows NT 10.0; Win64; x64) AppleWebKit/537.36 (KHTML, like Gecko) Chrome/130.0.0.0 Safari/537.36 Edg/130.0.0.0" version="24.8.4">
  <diagram name="Page-1" id="qGc0IayNZjxI3vwglkpV">
    <mxGraphModel dx="1431" dy="807" grid="1" gridSize="10" guides="1" tooltips="1" connect="1" arrows="1" fold="1" page="1" pageScale="1" pageWidth="850" pageHeight="1100" math="0" shadow="0">
      <root>
        <mxCell id="0" />
        <mxCell id="1" parent="0" />
        <mxCell id="GbU6guju4dkRqSc4AEx3-1" value="User Initiates Checkout" style="whiteSpace=wrap;strokeWidth=2;" vertex="1" parent="1">
          <mxGeometry x="107" y="20" width="227" height="48" as="geometry" />
        </mxCell>
        <mxCell id="GbU6guju4dkRqSc4AEx3-2" value="Verify Cart Contents" style="whiteSpace=wrap;strokeWidth=2;" vertex="1" parent="1">
          <mxGeometry x="117" y="118" width="206" height="48" as="geometry" />
        </mxCell>
        <mxCell id="GbU6guju4dkRqSc4AEx3-3" value="Calculate Cart Total" style="whiteSpace=wrap;strokeWidth=2;" vertex="1" parent="1">
          <mxGeometry x="119" y="217" width="203" height="48" as="geometry" />
        </mxCell>
        <mxCell id="GbU6guju4dkRqSc4AEx3-4" value="Apply User-Specific Discounts" style="whiteSpace=wrap;strokeWidth=2;" vertex="1" parent="1">
          <mxGeometry x="121" y="315" width="199" height="66" as="geometry" />
        </mxCell>
        <mxCell id="GbU6guju4dkRqSc4AEx3-5" value="Process Payment Method Selection" style="whiteSpace=wrap;strokeWidth=2;" vertex="1" parent="1">
          <mxGeometry x="102" y="431" width="236" height="66" as="geometry" />
        </mxCell>
        <mxCell id="GbU6guju4dkRqSc4AEx3-6" value="Validate Payment Details" style="whiteSpace=wrap;strokeWidth=2;" vertex="1" parent="1">
          <mxGeometry x="101" y="547" width="239" height="48" as="geometry" />
        </mxCell>
        <mxCell id="GbU6guju4dkRqSc4AEx3-7" value="Process Payment" style="whiteSpace=wrap;strokeWidth=2;" vertex="1" parent="1">
          <mxGeometry x="131" y="646" width="179" height="48" as="geometry" />
        </mxCell>
        <mxCell id="GbU6guju4dkRqSc4AEx3-8" value="Save Order Details" style="whiteSpace=wrap;strokeWidth=2;" vertex="1" parent="1">
          <mxGeometry x="124" y="744" width="192" height="48" as="geometry" />
        </mxCell>
        <mxCell id="GbU6guju4dkRqSc4AEx3-9" value="Generate Order Confirmation" style="whiteSpace=wrap;strokeWidth=2;" vertex="1" parent="1">
          <mxGeometry x="20" y="865" width="173" height="66" as="geometry" />
        </mxCell>
        <mxCell id="GbU6guju4dkRqSc4AEx3-10" value="User" style="whiteSpace=wrap;strokeWidth=2;" vertex="1" parent="1">
          <mxGeometry x="60" y="1003" width="93" height="48" as="geometry" />
        </mxCell>
        <mxCell id="GbU6guju4dkRqSc4AEx3-11" value="Order Data Store" style="whiteSpace=wrap;strokeWidth=2;" vertex="1" parent="1">
          <mxGeometry x="243" y="874" width="181" height="48" as="geometry" />
        </mxCell>
        <mxCell id="GbU6guju4dkRqSc4AEx3-12" value="" style="curved=1;startArrow=none;endArrow=block;exitX=0.5;exitY=1.01;entryX=0.5;entryY=0.01;rounded=0;" edge="1" parent="1" source="GbU6guju4dkRqSc4AEx3-1" target="GbU6guju4dkRqSc4AEx3-2">
          <mxGeometry relative="1" as="geometry">
            <Array as="points" />
          </mxGeometry>
        </mxCell>
        <mxCell id="GbU6guju4dkRqSc4AEx3-13" value="" style="curved=1;startArrow=none;endArrow=block;exitX=0.5;exitY=1.02;entryX=0.5;entryY=0;rounded=0;" edge="1" parent="1" source="GbU6guju4dkRqSc4AEx3-2" target="GbU6guju4dkRqSc4AEx3-3">
          <mxGeometry relative="1" as="geometry">
            <Array as="points" />
          </mxGeometry>
        </mxCell>
        <mxCell id="GbU6guju4dkRqSc4AEx3-14" value="" style="curved=1;startArrow=none;endArrow=block;exitX=0.5;exitY=1;entryX=0.5;entryY=0;rounded=0;" edge="1" parent="1" source="GbU6guju4dkRqSc4AEx3-3" target="GbU6guju4dkRqSc4AEx3-4">
          <mxGeometry relative="1" as="geometry">
            <Array as="points" />
          </mxGeometry>
        </mxCell>
        <mxCell id="GbU6guju4dkRqSc4AEx3-15" value="" style="curved=1;startArrow=none;endArrow=block;exitX=0.5;exitY=1;entryX=0.5;entryY=0;rounded=0;" edge="1" parent="1" source="GbU6guju4dkRqSc4AEx3-4" target="GbU6guju4dkRqSc4AEx3-5">
          <mxGeometry relative="1" as="geometry">
            <Array as="points" />
          </mxGeometry>
        </mxCell>
        <mxCell id="GbU6guju4dkRqSc4AEx3-16" value="" style="curved=1;startArrow=none;endArrow=block;exitX=0.5;exitY=1;entryX=0.5;entryY=0;rounded=0;" edge="1" parent="1" source="GbU6guju4dkRqSc4AEx3-5" target="GbU6guju4dkRqSc4AEx3-6">
          <mxGeometry relative="1" as="geometry">
            <Array as="points" />
          </mxGeometry>
        </mxCell>
        <mxCell id="GbU6guju4dkRqSc4AEx3-17" value="" style="curved=1;startArrow=none;endArrow=block;exitX=0.5;exitY=1.01;entryX=0.5;entryY=-0.01;rounded=0;" edge="1" parent="1" source="GbU6guju4dkRqSc4AEx3-6" target="GbU6guju4dkRqSc4AEx3-7">
          <mxGeometry relative="1" as="geometry">
            <Array as="points" />
          </mxGeometry>
        </mxCell>
        <mxCell id="GbU6guju4dkRqSc4AEx3-18" value="" style="curved=1;startArrow=none;endArrow=block;exitX=0.5;exitY=1;entryX=0.5;entryY=0;rounded=0;" edge="1" parent="1" source="GbU6guju4dkRqSc4AEx3-7" target="GbU6guju4dkRqSc4AEx3-8">
          <mxGeometry relative="1" as="geometry">
            <Array as="points" />
          </mxGeometry>
        </mxCell>
        <mxCell id="GbU6guju4dkRqSc4AEx3-19" value="" style="curved=1;startArrow=none;endArrow=block;exitX=0.26;exitY=1.01;entryX=0.5;entryY=0;rounded=0;" edge="1" parent="1" source="GbU6guju4dkRqSc4AEx3-8" target="GbU6guju4dkRqSc4AEx3-9">
          <mxGeometry relative="1" as="geometry">
            <Array as="points">
              <mxPoint x="107" y="829" />
            </Array>
          </mxGeometry>
        </mxCell>
        <mxCell id="GbU6guju4dkRqSc4AEx3-20" value="Sends Confirmation" style="curved=1;startArrow=none;endArrow=block;exitX=0.5;exitY=1;entryX=0.5;entryY=0;rounded=0;" edge="1" parent="1" source="GbU6guju4dkRqSc4AEx3-9" target="GbU6guju4dkRqSc4AEx3-10">
          <mxGeometry relative="1" as="geometry">
            <Array as="points" />
          </mxGeometry>
        </mxCell>
        <mxCell id="GbU6guju4dkRqSc4AEx3-21" value="Save" style="curved=1;startArrow=none;endArrow=block;exitX=0.74;exitY=1.01;entryX=0.5;entryY=-0.01;rounded=0;" edge="1" parent="1" source="GbU6guju4dkRqSc4AEx3-8" target="GbU6guju4dkRqSc4AEx3-11">
          <mxGeometry relative="1" as="geometry">
            <Array as="points">
              <mxPoint x="334" y="829" />
            </Array>
          </mxGeometry>
        </mxCell>
      </root>
    </mxGraphModel>
  </diagram>
</mxfile>
